  0
SECTION
  2
HEADER
  9
$ACADVER
  1
AC1014
  9
$HANDSEED
  5
FFFF
  9
$MEASUREMENT
 70
     1
  0
ENDSEC
  0
SECTION
  2
TABLES
  0
TABLE
  2
VPORT
  5
8
330
0
100
AcDbSymbolTable
 70
     4
  0
VPORT
  5
2E
330
8
100
AcDbSymbolTableRecord
100
AcDbViewportTableRecord
  2
*ACTIVE
 70
     0
 10
0.0
 20
0.0
 11
1.0
 21
1.0
 12
210.0
 22
148.5
 13
0.0
 23
0.0
 14
10.0
 24
10.0
 15
10.0
 25
10.0
 16
0.0
 26
0.0
 36
1.0
 17
0.0
 27
0.0
 37
0.0
 40
341.0
 41
1.24
 42
50.0
 43
0.0
 44
0.0
 50
0.0
 51
0.0
 71
     0
 72
   100
 73
     1
 74
     3
 75
     0
 76
     0
 77
     0
 78
     0
  0
ENDTAB
  0
TABLE
  2
LTYPE
  5
5
330
0
100
AcDbSymbolTable
 70
     1
  0
LTYPE
  5
14
330
5
100
AcDbSymbolTableRecord
100
AcDbLinetypeTableRecord
  2
BYBLOCK
 70
     0
  3

 72
    65
 73
     0
 40
0.0
  0
LTYPE
  5
15
330
5
100
AcDbSymbolTableRecord
100
AcDbLinetypeTableRecord
  2
BYLAYER
 70
     0
  3

 72
    65
 73
     0
 40
0.0
  0
LTYPE
  5
16
330
5
100
AcDbSymbolTableRecord
100
AcDbLinetypeTableRecord
  2
CONTINUOUS
 70
     0
  3
Solid line
 72
    65
 73
     0
 40
0.0
  0
ENDTAB
  0
TABLE
  2
LAYER
  5
2
100
AcDbSymbolTable
 70
11
  0
LAYER
  5
50
100
AcDbSymbolTableRecord
100
AcDbLayerTableRecord
  2
0
 70
0
  6
CONTINUOUS
  0
LAYER
  5
51
100
AcDbSymbolTableRecord
100
AcDbLayerTableRecord
  2
[fixed]_BG
 70
0
  6
CONTINUOUS
  0
LAYER
  5
52
100
AcDbSymbolTableRecord
100
AcDbLayerTableRecord
  2
Edge.Cuts
 70
0
  6
CONTINUOUS
  0
LAYER
  5
53
100
AcDbSymbolTableRecord
100
AcDbLayerTableRecord
  2
B.Cu
 70
0
  6
CONTINUOUS
  0
LAYER
  5
54
100
AcDbSymbolTableRecord
100
AcDbLayerTableRecord
  2
B.Mask
 70
0
  6
CONTINUOUS
  0
LAYER
  5
55
100
AcDbSymbolTableRecord
100
AcDbLayerTableRecord
  2
B.SilkS
 70
0
  6
CONTINUOUS
  0
LAYER
  5
56
100
AcDbSymbolTableRecord
100
AcDbLayerTableRecord
  2
F.Cu
 70
0
  6
CONTINUOUS
  0
LAYER
  5
57
100
AcDbSymbolTableRecord
100
AcDbLayerTableRecord
  2
F.Mask
 70
0
  6
CONTINUOUS
  0
LAYER
  5
58
100
AcDbSymbolTableRecord
100
AcDbLayerTableRecord
  2
F.SilkS
 70
0
  6
CONTINUOUS
  0
LAYER
  5
59
100
AcDbSymbolTableRecord
100
AcDbLayerTableRecord
  2
Dwgs.User
 70
0
  6
CONTINUOUS
  0
LAYER
  5
5a
100
AcDbSymbolTableRecord
100
AcDbLayerTableRecord
  2
Drill
 70
0
  6
CONTINUOUS
  0
ENDTAB
  0
TABLE
  2
STYLE
  5
3
330
0
100
AcDbSymbolTable
 70
     1
  0
STYLE
  5
11
330
3
100
AcDbSymbolTableRecord
100
AcDbTextStyleTableRecord
  2
STANDARD
 70
     0
 40
0.0
 41
1.0
 50
0.0
 71
     0
 42
2.5
  3
txt
  4

  0
ENDTAB
  0
TABLE
  2
VIEW
  5
6
330
0
100
AcDbSymbolTable
 70
     0
  0
ENDTAB
  0
TABLE
  2
UCS
  5
7
330
0
100
AcDbSymbolTable
 70
     0
  0
ENDTAB
  0
TABLE
  2
APPID
  5
9
330
0
100
AcDbSymbolTable
 70
     2
  0
APPID
  5
12
330
9
100
AcDbSymbolTableRecord
100
AcDbRegAppTableRecord
  2
ACAD
 70
     0
  0
ENDTAB
  0
TABLE
  2
DIMSTYLE
  5
A
330
0
100
AcDbSymbolTable
 70
     1
  0
DIMSTYLE
105
27
330
A
100
AcDbSymbolTableRecord
100
AcDbDimStyleTableRecord
  2
ISO-25
 70
     0
  3

  4

  5

  6

  7

 40
1.0
 41
2.5
 42
0.625
 43
3.75
 44
1.25
 45
0.0
 46
0.0
 47
0.0
 48
0.0
140
2.5
141
2.5
142
0.0
143
0.03937007874016
144
1.0
145
0.0
146
1.0
147
0.625
 71
     0
 72
     0
 73
     0
 74
     0
 75
     0
 76
     0
 77
     1
 78
     8
170
     0
171
     3
172
     1
173
     0
174
     0
175
     0
176
     0
177
     0
178
     0
270
     2
271
     2
272
     2
273
     2
274
     3
340
11
275
     0
280
     0
281
     0
282
     0
283
     0
284
     8
285
     0
286
     0
287
     3
288
     0
  0
ENDTAB
  0
TABLE
  2
BLOCK_RECORD
  5
1
330
0
100
AcDbSymbolTable
 70
     1
  0
BLOCK_RECORD
  5
1F
330
1
100
AcDbSymbolTableRecord
100
AcDbBlockTableRecord
  2
*MODEL_SPACE
  0
BLOCK_RECORD
  5
1B
330
1
100
AcDbSymbolTableRecord
100
AcDbBlockTableRecord
  2
*PAPER_SPACE
  0
ENDTAB
  0
ENDSEC
  0
SECTION
  2
BLOCKS
  0
BLOCK
  5
20
330
1F
100
AcDbEntity
  8
0
100
AcDbBlockBegin
  2
*MODEL_SPACE
 70
     0
 10
0.0
 20
0.0
 30
0.0
  3
*MODEL_SPACE
  1

  0
ENDBLK
  5
21
330
1F
100
AcDbEntity
  8
0
100
AcDbBlockEnd
  0
BLOCK
  5
1C
330
1B
100
AcDbEntity
 67
     1
  8
0
100
AcDbBlockBegin
  2
*PAPER_SPACE
  1

  0
ENDBLK
  5
1D
330
1B
100
AcDbEntity
 67
     1
  8
0
100
AcDbBlockEnd
  0
ENDSEC
  0
SECTION
  2
ENTITIES
  0
LWPOLYLINE
  5
100
100
AcDbEntity
  8
[fixed]_BG
 62
7
100
AcDbPolyline
 90
4
 70
1
 10
0.000000
 20
50.000000
 30
0.0
 10
755.905512
 20
50.000000
 30
0.0
 10
755.905512
 20
-138.976378
 30
0.0
 10
0.000000
 20
-138.976378
 30
0.0
  0
LWPOLYLINE
  5
101
100
AcDbEntity
  8
Edge.Cuts
 62
1
100
AcDbPolyline
 90
67
 70
1
 10
197.031000
 20
48.940520
 30
0.0
 10
197.236000
 20
48.932800
 30
0.0
 10
197.435000
 20
48.902600
 30
0.0
 10
197.627000
 20
48.853470
 30
0.0
 10
197.811000
 20
48.786400
 30
0.0
 10
197.986000
 20
48.702390
 30
0.0
 10
198.151000
 20
48.602420
 30
0.0
 10
198.305000
 20
48.487490
 30
0.0
 10
198.447000
 20
48.358590
 30
0.0
 10
198.575000
 20
48.216700
 30
0.0
 10
198.690000
 20
48.062810
 30
0.0
 10
198.790000
 20
47.897930
 30
0.0
 10
198.874000
 20
47.723020
 30
0.0
 10
198.941000
 20
47.539100
 30
0.0
 10
198.991000
 20
47.347140
 30
0.0
 10
199.021000
 20
47.148140
 30
0.0
 10
199.031000
 20
46.943090
 30
0.0
 10
199.031000
 20
2.943100
 30
0.0
 10
199.021000
 20
2.738000
 30
0.0
 10
198.991000
 20
2.539000
 30
0.0
 10
198.941000
 20
2.347100
 30
0.0
 10
198.874000
 20
2.163100
 30
0.0
 10
198.790000
 20
1.988200
 30
0.0
 10
198.690000
 20
1.823400
 30
0.0
 10
198.575000
 20
1.669500
 30
0.0
 10
198.447000
 20
1.527600
 30
0.0
 10
198.305000
 20
1.398700
 30
0.0
 10
198.151000
 20
1.283800
 30
0.0
 10
197.986000
 20
1.183800
 30
0.0
 10
197.811000
 20
1.099800
 30
0.0
 10
197.627000
 20
1.032700
 30
0.0
 10
197.435000
 20
0.983600
 30
0.0
 10
197.236000
 20
0.953400
 30
0.0
 10
197.031000
 20
0.943100
 30
0.0
 10
3.031010
 20
0.943100
 30
0.0
 10
2.825950
 20
0.953400
 30
0.0
 10
2.626950
 20
0.983600
 30
0.0
 10
2.434990
 20
1.032700
 30
0.0
 10
2.251070
 20
1.099800
 30
0.0
 10
2.076170
 20
1.183800
 30
0.0
 10
1.911280
 20
1.283800
 30
0.0
 10
1.757400
 20
1.398700
 30
0.0
 10
1.615510
 20
1.527600
 30
0.0
 10
1.486600
 20
1.669500
 30
0.0
 10
1.371670
 20
1.823400
 30
0.0
 10
1.271710
 20
1.988200
 30
0.0
 10
1.187690
 20
2.163100
 30
0.0
 10
1.120630
 20
2.347100
 30
0.0
 10
1.071500
 20
2.539000
 30
0.0
 10
1.041300
 20
2.738000
 30
0.0
 10
1.031010
 20
2.943100
 30
0.0
 10
1.031010
 20
46.943090
 30
0.0
 10
1.041300
 20
47.148140
 30
0.0
 10
1.071500
 20
47.347140
 30
0.0
 10
1.120630
 20
47.539100
 30
0.0
 10
1.187690
 20
47.723020
 30
0.0
 10
1.271710
 20
47.897930
 30
0.0
 10
1.371670
 20
48.062810
 30
0.0
 10
1.486600
 20
48.216700
 30
0.0
 10
1.615510
 20
48.358590
 30
0.0
 10
1.757400
 20
48.487490
 30
0.0
 10
1.911280
 20
48.602420
 30
0.0
 10
2.076170
 20
48.702390
 30
0.0
 10
2.251070
 20
48.786400
 30
0.0
 10
2.434990
 20
48.853470
 30
0.0
 10
2.626950
 20
48.902600
 30
0.0
 10
2.928480
 20
48.940520
 30
0.0
  0
SPLINE
  5
102
100
AcDbEntity
  8
Drill
 62
7
100
AcDbSpline
 70
0
 71
3
 72
22
 73
18
 74
16
 40
0.000000
 40
0.000000
 40
0.000000
 40
0.000000
 40
2.373649
 40
4.705029
 40
7.078678
 40
9.452326
 40
11.783707
 40
14.157356
 40
16.531004
 40
18.862385
 40
21.236033
 40
23.609682
 40
25.941062
 40
28.314711
 40
31.476568
 40
34.544645
 40
37.706502
 40
37.706502
 40
37.706502
 40
37.706502
 10
21.165354
 20
34.881890
 30
0.0
 10
20.369029
 20
34.790001
 30
0.0
 10
18.790559
 20
34.607860
 30
0.0
 10
16.779036
 20
33.210630
 30
0.0
 10
15.431212
 20
31.212871
 30
0.0
 10
14.961447
 20
28.833125
 30
0.0
 10
15.433417
 20
26.461394
 30
0.0
 10
16.776632
 20
24.445865
 30
0.0
 10
18.791881
 20
23.102724
 30
0.0
 10
21.164647
 20
22.630738
 30
0.0
 10
23.540478
 20
23.100493
 30
0.0
 10
25.552816
 20
24.448373
 30
0.0
 10
26.896259
 20
26.459687
 30
0.0
 10
27.426956
 20
29.099794
 30
0.0
 10
26.644869
 20
31.981831
 30
0.0
 10
24.331663
 20
34.387905
 30
0.0
 10
22.231329
 20
34.715584
 30
0.0
 10
21.165354
 20
34.881890
 30
0.0
 11
21.165354
 21
34.881890
 31
0.0
 11
18.837833
 21
34.416214
 31
0.0
 11
16.899361
 21
33.120969
 31
0.0
 11
15.578429
 21
31.148826
 31
0.0
 11
15.117954
 21
28.820271
 31
0.0
 11
15.572783
 21
26.533687
 31
0.0
 11
16.889307
 21
24.558599
 31
0.0
 11
18.864395
 21
23.242075
 31
0.0
 11
21.150979
 21
22.787246
 31
0.0
 11
23.479534
 21
23.247721
 31
0.0
 11
25.451677
 21
24.568653
 31
0.0
 11
26.746922
 21
26.507125
 31
0.0
 11
27.212598
 21
28.834646
 31
0.0
 11
26.386972
 21
31.886806
 31
0.0
 11
24.217514
 21
34.056264
 31
0.0
 11
21.165354
 21
34.881890
 31
0.0
  0
LWPOLYLINE
  5
103
100
AcDbEntity
  8
Drill
 62
7
100
AcDbPolyline
 90
1
 70
1
 10
21.165354
 20
34.881890
 30
0.0
  0
SPLINE
  5
104
100
AcDbEntity
  8
Drill
 62
7
100
AcDbSpline
 70
0
 71
3
 72
22
 73
18
 74
16
 40
0.000000
 40
0.000000
 40
0.000000
 40
0.000000
 40
2.373649
 40
4.705029
 40
7.078678
 40
9.452326
 40
11.783707
 40
14.157356
 40
16.531004
 40
18.862385
 40
21.236033
 40
23.609682
 40
25.941062
 40
28.314711
 40
31.476568
 40
34.544645
 40
37.706502
 40
37.706502
 40
37.706502
 40
37.706502
 10
21.165354
 20
-112.519677
 30
0.0
 10
20.369029
 20
-112.611566
 30
0.0
 10
18.790559
 20
-112.793707
 30
0.0
 10
16.779036
 20
-114.190937
 30
0.0
 10
15.431212
 20
-116.188697
 30
0.0
 10
14.961447
 20
-118.568443
 30
0.0
 10
15.433417
 20
-120.940174
 30
0.0
 10
16.776632
 20
-122.955703
 30
0.0
 10
18.791881
 20
-124.298844
 30
0.0
 10
21.164647
 20
-124.770829
 30
0.0
 10
23.540478
 20
-124.301075
 30
0.0
 10
25.552816
 20
-122.953195
 30
0.0
 10
26.896259
 20
-120.941881
 30
0.0
 10
27.426956
 20
-118.301773
 30
0.0
 10
26.644869
 20
-115.419737
 30
0.0
 10
24.331663
 20
-113.013662
 30
0.0
 10
22.231329
 20
-112.685983
 30
0.0
 10
21.165354
 20
-112.519677
 30
0.0
 11
21.165354
 21
-112.519677
 31
0.0
 11
18.837833
 21
-112.985353
 31
0.0
 11
16.899361
 21
-114.280599
 31
0.0
 11
15.578429
 21
-116.252741
 31
0.0
 11
15.117954
 21
-118.581297
 31
0.0
 11
15.572783
 21
-120.867880
 31
0.0
 11
16.889307
 21
-122.842969
 31
0.0
 11
18.864395
 21
-124.159492
 31
0.0
 11
21.150979
 21
-124.614322
 31
0.0
 11
23.479534
 21
-124.153847
 31
0.0
 11
25.451677
 21
-122.832915
 31
0.0
 11
26.746922
 21
-120.894443
 31
0.0
 11
27.212598
 21
-118.566922
 31
0.0
 11
26.386972
 21
-115.514762
 31
0.0
 11
24.217514
 21
-113.345304
 31
0.0
 11
21.165354
 21
-112.519677
 31
0.0
  0
LWPOLYLINE
  5
105
100
AcDbEntity
  8
Drill
 62
7
100
AcDbPolyline
 90
1
 70
1
 10
21.165354
 20
-112.519677
 30
0.0
  0
SPLINE
  5
106
100
AcDbEntity
  8
Drill
 62
7
100
AcDbSpline
 70
0
 71
3
 72
25
 73
21
 74
19
 40
0.000000
 40
0.000000
 40
0.000000
 40
0.000000
 40
2.373649
 40
4.705029
 40
7.078678
 40
9.452326
 40
11.783707
 40
14.157356
 40
16.531004
 40
18.862385
 40
21.236033
 40
23.609682
 40
25.941062
 40
28.314711
 40
29.897728
 40
31.467644
 40
33.050661
 40
34.633677
 40
36.203594
 40
37.786611
 40
37.786611
 40
37.786611
 40
37.786611
 10
731.716573
 20
34.881890
 30
0.0
 10
730.920248
 20
34.790001
 30
0.0
 10
729.341779
 20
34.607860
 30
0.0
 10
727.330255
 20
33.210630
 30
0.0
 10
725.982431
 20
31.212871
 30
0.0
 10
725.512666
 20
28.833125
 30
0.0
 10
725.984636
 20
26.461394
 30
0.0
 10
727.327850
 20
24.445866
 30
0.0
 10
729.343104
 20
23.102721
 30
0.0
 10
731.715852
 20
22.630750
 30
0.0
 10
734.091750
 20
23.100449
 30
0.0
 10
736.103840
 20
24.448535
 30
0.0
 10
737.448200
 20
26.459088
 30
0.0
 10
737.869306
 20
28.571899
 30
0.0
 10
737.624511
 20
30.417565
 30
0.0
 10
737.013746
 20
31.892568
 30
0.0
 10
736.042009
 20
33.161412
 30
0.0
 10
734.774760
 20
34.126785
 30
0.0
 10
733.299746
 20
34.761285
 30
0.0
 10
732.245757
 20
34.841577
 30
0.0
 10
731.716573
 20
34.881890
 30
0.0
 11
731.716573
 21
34.881890
 31
0.0
 11
729.389052
 21
34.416214
 31
0.0
 11
727.450580
 21
33.120969
 31
0.0
 11
726.129648
 21
31.148826
 31
0.0
 11
725.669173
 21
28.820271
 31
0.0
 11
726.124003
 21
26.533687
 31
0.0
 11
727.440526
 21
24.558599
 31
0.0
 11
729.415614
 21
23.242075
 31
0.0
 11
731.702198
 21
22.787246
 31
0.0
 11
734.030753
 21
23.247721
 31
0.0
 11
736.002896
 21
24.568653
 31
0.0
 11
737.298142
 21
26.507125
 31
0.0
 11
737.763817
 21
28.834646
 31
0.0
 11
737.556636
 21
30.404046
 31
0.0
 11
736.955854
 21
31.854460
 31
0.0
 11
735.992621
 21
33.110693
 31
0.0
 11
734.736387
 21
34.073927
 31
0.0
 11
733.285974
 21
34.674708
 31
0.0
 11
731.716573
 21
34.881890
 31
0.0
  0
LWPOLYLINE
  5
107
100
AcDbEntity
  8
Drill
 62
7
100
AcDbPolyline
 90
1
 70
1
 10
731.716573
 20
34.881890
 30
0.0
  0
SPLINE
  5
108
100
AcDbEntity
  8
Drill
 62
7
100
AcDbSpline
 70
0
 71
3
 72
25
 73
21
 74
19
 40
0.000000
 40
0.000000
 40
0.000000
 40
0.000000
 40
2.373649
 40
4.705029
 40
7.078678
 40
9.452326
 40
11.783707
 40
14.157356
 40
16.531004
 40
18.862385
 40
21.236033
 40
23.609682
 40
25.941062
 40
28.314711
 40
29.897728
 40
31.467644
 40
33.050661
 40
34.633677
 40
36.203594
 40
37.786611
 40
37.786611
 40
37.786611
 40
37.786611
 10
731.716573
 20
-112.519677
 30
0.0
 10
730.920248
 20
-112.611566
 30
0.0
 10
729.341779
 20
-112.793707
 30
0.0
 10
727.330255
 20
-114.190937
 30
0.0
 10
725.982431
 20
-116.188697
 30
0.0
 10
725.512666
 20
-118.568443
 30
0.0
 10
725.984636
 20
-120.940174
 30
0.0
 10
727.327850
 20
-122.955702
 30
0.0
 10
729.343104
 20
-124.298847
 30
0.0
 10
731.715852
 20
-124.770818
 30
0.0
 10
734.091750
 20
-124.301119
 30
0.0
 10
736.103840
 20
-122.953033
 30
0.0
 10
737.448200
 20
-120.942480
 30
0.0
 10
737.869306
 20
-118.829668
 30
0.0
 10
737.624511
 20
-116.984003
 30
0.0
 10
737.013746
 20
-115.509000
 30
0.0
 10
736.042009
 20
-114.240156
 30
0.0
 10
734.774760
 20
-113.274783
 30
0.0
 10
733.299746
 20
-112.640283
 30
0.0
 10
732.245757
 20
-112.559990
 30
0.0
 10
731.716573
 20
-112.519677
 30
0.0
 11
731.716573
 21
-112.519677
 31
0.0
 11
729.389052
 21
-112.985353
 31
0.0
 11
727.450580
 21
-114.280599
 31
0.0
 11
726.129648
 21
-116.252741
 31
0.0
 11
725.669173
 21
-118.581297
 31
0.0
 11
726.124003
 21
-120.867880
 31
0.0
 11
727.440526
 21
-122.842969
 31
0.0
 11
729.415614
 21
-124.159492
 31
0.0
 11
731.702198
 21
-124.614322
 31
0.0
 11
734.030753
 21
-124.153847
 31
0.0
 11
736.002896
 21
-122.832915
 31
0.0
 11
737.298142
 21
-120.894443
 31
0.0
 11
737.763817
 21
-118.566922
 31
0.0
 11
737.556636
 21
-116.997521
 31
0.0
 11
736.955854
 21
-115.547107
 31
0.0
 11
735.992621
 21
-114.290874
 31
0.0
 11
734.736387
 21
-113.327640
 31
0.0
 11
733.285974
 21
-112.726859
 31
0.0
 11
731.716573
 21
-112.519677
 31
0.0
  0
LWPOLYLINE
  5
109
100
AcDbEntity
  8
Drill
 62
7
100
AcDbPolyline
 90
1
 70
1
 10
731.716573
 20
-112.519677
 30
0.0
  0
ENDSEC
  0
SECTION
  2
OBJECTS
  0
DICTIONARY
  5
C
330
0
100
AcDbDictionary
  3
ACAD_GROUP
350
D
  3
ACAD_MLINESTYLE
350
17
  0
DICTIONARY
  5
D
330
C
100
AcDbDictionary
  0
DICTIONARY
  5
1A
330
C
100
AcDbDictionary
  0
DICTIONARY
  5
17
330
C
100
AcDbDictionary
  3
STANDARD
350
18
  0
DICTIONARY
  5
19
330
C
100
AcDbDictionary
  0
ENDSEC
  0
EOF
